<svg id="visual" viewBox="0 0 900 600" width="900" height="600" xmlns="http://www.w3.org/2000/svg" xmlns:xlink="http://www.w3.org/1999/xlink" version="1.1"><rect width="900" height="600" fill="#ecf9fc"></rect><g><g transform="translate(555 424)"><path d="M92.9 -31.2C105.2 7.7 89.5 54.7 57.1 78.1C24.6 101.6 -24.5 101.5 -54.6 78.8C-84.6 56.1 -95.4 10.8 -83.1 -28.1C-70.9 -66.9 -35.4 -99.3 2.4 -100.1C40.3 -100.9 80.6 -70.1 92.9 -31.2Z" fill="#0d6efd"></path></g><g transform="translate(145 414)"><path d="M85.3 -26.8C97.6 10.2 85.8 56 55.8 78.1C25.8 100.2 -22.4 98.7 -54.7 75.2C-87 51.8 -103.5 6.4 -91.7 -29.9C-80 -66.1 -40 -93.2 -1.8 -92.6C36.5 -92.1 73 -63.8 85.3 -26.8Z" fill="#0d6efd"></path></g><g transform="translate(412 122)"><path d="M71.9 -26.6C79.9 1.1 63.9 33.5 37.9 52.4C11.9 71.3 -24 76.8 -46 61.3C-68.1 45.7 -76.4 9.1 -66.4 -21.3C-56.4 -51.8 -28.2 -76.1 1.9 -76.7C32 -77.4 64 -54.3 71.9 -26.6Z" fill="#0d6efd"></path></g></g></svg>