<svg id="visual" viewBox="0 0 900 600" width="900" height="600" xmlns="http://www.w3.org/2000/svg" xmlns:xlink="http://www.w3.org/1999/xlink" version="1.1"><rect width="900" height="600" fill="#734635"></rect><g><g transform="translate(312 155)"><path d="M69.7 -70.9C90.3 -49.1 106.8 -24.6 110 3.2C113.2 31 103.1 62 82.6 85.1C62 108.2 31 123.5 3.2 120.3C-24.6 117.1 -49.2 95.5 -71.2 72.3C-93.1 49.2 -112.4 24.6 -113.1 -0.7C-113.9 -26 -96 -52 -74 -73.8C-52 -95.6 -26 -113.2 -0.7 -112.5C24.6 -111.8 49.1 -92.7 69.7 -70.9Z" fill="#F7760E"></path></g><g transform="translate(793 165)"><path d="M50.6 -53.5C63.2 -38.1 69.2 -19.1 69.1 -0.1C68.9 18.8 62.6 37.6 50.1 53C37.6 68.5 18.8 80.7 0.8 79.9C-17.2 79.1 -34.3 65.3 -49.7 49.8C-65.2 34.3 -78.9 17.2 -81.1 -2.2C-83.3 -21.6 -74 -43.2 -58.6 -58.6C-43.2 -73.9 -21.6 -83.1 -1.3 -81.8C19.1 -80.5 38.1 -68.9 50.6 -53.5Z" fill="#F7760E"></path></g><g transform="translate(720 533)"><path d="M62.9 -62.7C76.4 -49.3 78.8 -24.7 78.5 -0.3C78.1 24 75 47.9 61.5 66.4C47.9 84.8 24 97.6 0.3 97.3C-23.4 97.1 -46.9 83.7 -61.8 65.3C-76.7 46.9 -83.1 23.4 -83.2 -0.1C-83.3 -23.5 -77 -47.1 -62 -60.4C-47.1 -73.8 -23.5 -76.9 0.6 -77.4C24.7 -78 49.3 -76 62.9 -62.7Z" fill="#F7760E"></path></g></g></svg>